PathFileType	4	(X/Y/Z)	C:/Users/opensim2020/Desktop/walking_exp_matlab/subject02_walking11_straight_03.trc	
DataRate	CameraRate	NumFrames	NumMarkers	Units	OrigDataRate	OrigDataStartFrame	OrigNumFrames	
100.00	100.00	9	42	mm	100.00	2567	250	
Frame#	Time	LFHD			RFHD			LBHD			RBHD			C7			T10			CLAV			STRN			RBAK			LSHO			LUPA			LELB			LFRM			LWRA			LWRB			LFIN			RSHO			RUPA			RELB			RFRM			RWRA			RWRB			RFIN			LASI			RASI			LPSI			RPSI			LTHI			LKNE			LTIB			LANK			LHEE			LTOE			RTHI			RKNE			RTIB			RANK			RHEE			RTOE			*39			*40			*41			
		X1	Y1	Z1	X2	Y2	Z2	X3	Y3	Z3	X4	Y4	Z4	X5	Y5	Z5	X6	Y6	Z6	X7	Y7	Z7	X8	Y8	Z8	X9	Y9	Z9	X10	Y10	Z10	X11	Y11	Z11	X12	Y12	Z12	X13	Y13	Z13	X14	Y14	Z14	X15	Y15	Z15	X16	Y16	Z16	X17	Y17	Z17	X18	Y18	Z18	X19	Y19	Z19	X20	Y20	Z20	X21	Y21	Z21	X22	Y22	Z22	X23	Y23	Z23	X24	Y24	Z24	X25	Y25	Z25	X26	Y26	Z26	X27	Y27	Z27	X28	Y28	Z28	X29	Y29	Z29	X30	Y30	Z30	X31	Y31	Z31	X32	Y32	Z32	X33	Y33	Z33	X34	Y34	Z34	X35	Y35	Z35	X36	Y36	Z36	X37	Y37	Z37	X38	Y38	Z38	X39	Y39	Z39	X40	Y40	Z40	X41	Y41	Z41	X42	Y42	Z42	

188	1.870	1460.40967	541.98932	1751.70837	1603.86694	547.78680	1740.72449	1457.93677	436.13000	1644.38354	1599.89038	429.96088	1628.39319	1535.64490	400.42581	1527.40149	1540.11365	334.07510	1256.10779	1518.08154	536.64917	1453.26904	1528.71960	579.35358	1277.41760	1605.09290	339.64447	1360.86572	1351.32788	464.54007	1497.34241	1270.84192	416.84470	1303.60974	1259.48425	384.39359	1168.24524	1235.44360	359.83322	1041.26294	1244.08142	388.82407	903.55933	1221.55054	339.69629	920.03937	1211.05103	341.98392	853.41327	1715.79602	493.77014	1492.21948	1804.80603	501.01001	1299.96326	1820.42297	549.38831	1159.21582	1832.21277	616.05811	1058.59998	1806.07068	703.68317	958.22052	1837.77332	661.50238	936.32111	1839.47046	719.51367	893.29193	1403.08984	568.05286	993.24731	1660.67212	563.15674	974.78101	1477.93030	356.26926	1032.29224	1592.05359	347.65158	1031.97644	1322.50427	552.94678	689.33752	1351.22241	588.67999	490.71597	1352.96277	592.90753	296.72321	1362.42847	676.45685	85.62910	1420.92065	667.38934	51.69509	1312.31299	825.26123	88.76363	1703.02771	454.92044	670.41522	1655.62341	425.42157	462.45642	1654.16577	357.70908	286.20264	1607.36438	317.23709	97.69531	1549.15735	279.86118	46.39969	1632.72754	462.91815	37.54168	1549.28040	426.74863	1791.17786	-3357.38623	2845.77490	1034.23914			 
189	1.880	1459.03003	549.32843	1750.77734	1602.51208	555.06073	1739.82373	1456.57813	443.15799	1643.74243	1598.82788	437.13712	1627.84888	1534.48462	407.43030	1526.48132	1538.90930	341.23511	1254.94812	1516.76563	543.68732	1452.46216	1527.50769	586.54401	1276.68896	1604.03125	346.88385	1359.88940	1350.12598	471.18469	1496.39465	1269.41113	422.51132	1302.88000	1258.32971	390.33588	1167.63623	1234.03418	365.12039	1041.05676	1242.21399	393.16647	902.96173	1220.03955	343.97256	919.74786	1209.23804	345.90945	853.19452	1714.56653	500.89792	1491.34534	1803.49084	508.45053	1299.05396	1819.21606	557.59369	1158.55481	1830.38953	625.08875	1058.28662	1803.71924	713.53168	958.85059	1835.68579	671.72900	936.57513	1836.88391	730.00787	894.01050	1402.48511	575.41736	992.14423	1660.04382	570.33160	973.86133	1477.19348	364.18100	1031.13489	1591.28796	354.95779	1031.31323	1322.58374	561.19861	688.31824	1351.27100	597.79059	489.94485	1351.71765	605.44391	296.22452	1360.52002	693.02216	86.73109	1418.77893	683.87372	52.90088	1312.40283	842.55011	91.32323	1702.74097	460.51813	670.14148	1655.25623	429.20679	462.13446	1653.88574	359.83719	286.55414	1607.03674	317.51273	98.13546	1548.73987	280.21268	46.88941	1632.79407	462.97220	37.51294	1547.94141	434.12427	1790.54578	-3360.30151	2845.22485	1034.11841			 
190	1.890	1457.62488	556.63489	1749.82520	1601.09656	562.30609	1738.86548	1455.13049	450.34424	1643.01294	1597.08240	443.99094	1627.11316	1533.25037	414.39157	1525.62061	1538.03943	348.61218	1254.15283	1515.31250	550.75403	1451.64246	1526.18250	593.89581	1275.97034	1602.57092	353.98660	1358.79663	1348.80786	477.84476	1495.52393	1268.10986	428.75720	1302.03052	1257.05200	396.44531	1167.03003	1232.49817	370.42291	1040.68030	1240.23035	398.05435	902.37341	1218.24573	348.85535	919.44055	1207.34473	350.36636	852.87122	1713.24316	508.06284	1490.48291	1802.12915	515.84418	1298.12988	1817.80164	565.61713	1157.77246	1828.63391	633.94025	1057.97974	1801.33313	723.07153	959.36328	1833.06580	681.60223	936.54248	1834.22546	740.22742	894.64349	1401.68481	582.92206	991.06158	1659.21655	577.63330	972.90619	1476.21313	370.87012	1030.30798	1590.41504	362.36600	1030.53052	1322.39709	569.74640	687.23688	1351.16064	606.88824	489.25067	1350.58850	617.50476	295.80820	1358.76038	708.39923	87.70914	1416.68994	698.84137	53.13380	1312.53748	858.58337	93.29768	1702.19470	466.01617	669.67017	1654.91284	433.05234	461.91101	1653.60645	361.97263	286.88992	1606.87231	318.01672	98.86017	1548.48645	280.43280	47.72975	1632.84729	463.03818	37.46934	1546.35229	441.50113	1790.18530	-3357.43506	2845.99927	1034.21155			 
191	1.900	1456.21960	564.18079	1749.02051	1599.60352	569.64801	1737.94482	1453.56885	457.43195	1642.41577	1595.51184	450.99527	1626.44849	1531.69165	421.45007	1524.58081	1536.89160	355.96896	1253.12000	1513.76440	557.89673	1450.78821	1524.79041	601.29218	1275.26074	1601.32019	361.29636	1357.88989	1347.39148	484.51654	1494.51770	1266.80481	435.37515	1301.21826	1255.67432	402.61368	1166.30896	1231.25720	377.03912	1039.94727	1238.29675	403.17374	901.66608	1216.50439	354.00864	919.06238	1205.40002	355.26358	852.46210	1711.81775	515.27478	1489.63440	1800.57959	523.22742	1297.21582	1816.10132	573.38269	1156.82617	1826.62036	642.59601	1057.60840	1798.79089	732.31360	959.75397	1830.34460	690.94397	936.36963	1831.45776	750.08575	895.13391	1400.70215	590.39838	989.95721	1658.29858	585.02905	971.96356	1475.41846	378.28064	1029.47339	1589.50232	369.79089	1029.78955	1322.17529	578.62335	686.26257	1350.86389	616.13519	488.53781	1349.51392	629.05182	295.41910	1357.22229	722.57520	88.55875	1415.01624	712.72913	53.77885	1312.61511	873.19775	94.76908	1701.60400	471.55124	669.22705	1654.77356	437.02289	461.89551	1653.31262	364.07758	287.36157	1606.90051	318.67590	99.71407	1548.52844	281.16678	48.40674	1632.93555	463.12140	37.46164	1544.94263	448.95166	1789.36584	-3360.27661	2845.20361	1034.18481			 
192	1.910	1454.60510	571.57123	1748.03174	1598.03015	577.01227	1737.00073	1451.92456	464.58762	1641.75623	1594.17993	458.26303	1625.89380	1530.40942	428.73929	1523.69202	1535.49426	363.34903	1251.94385	1512.11401	565.10522	1449.95361	1523.22668	608.79163	1274.54761	1599.96765	368.69354	1356.93152	1345.65991	491.07608	1493.45862	1265.19275	441.66727	1300.43591	1254.16296	408.93652	1165.54504	1229.61011	382.28296	1039.48523	1236.30054	408.62543	900.99286	1214.16223	359.45432	918.35486	1203.50696	360.47418	851.92065	1710.33630	522.62158	1488.80688	1798.92920	530.57361	1296.30530	1814.43896	581.13678	1155.97083	1824.08423	650.87708	1056.89978	1796.11877	741.32745	959.95593	1827.53943	699.95764	935.95093	1828.63989	759.56342	895.45795	1399.58496	597.98669	988.83929	1657.28491	592.58014	971.02734	1474.43176	386.54977	1028.12769	1588.46765	377.32889	1029.04004	1321.85034	587.70709	685.46814	1350.32751	625.45715	487.92725	1348.48657	640.08923	295.03375	1356.07166	735.42725	89.08214	1413.27710	725.36121	54.29382	1312.67957	886.38477	96.14974	1700.93958	477.00735	668.84601	1654.39465	440.81979	461.73206	1652.95654	366.18246	287.85025	1606.52380	319.00522	100.35500	1548.06152	280.94119	49.65244	1633.04480	463.19760	37.46914	1543.32275	456.47073	1788.71204	-3360.13281	2845.12793	1034.27136			 
193	1.920	1452.85754	578.93756	1747.13269	1596.35840	584.40332	1735.95508	1450.12317	471.92224	1641.06689	1592.41553	465.36847	1625.18372	1528.80798	435.92499	1522.80188	1534.37317	370.90234	1251.07324	1510.34937	572.37299	1449.13318	1521.59741	616.38489	1273.82520	1598.80261	374.54956	1356.26038	1344.06128	497.83887	1492.48608	1263.97217	448.74979	1299.61047	1252.59473	415.33365	1164.80762	1227.60449	388.09158	1038.98669	1234.21655	414.48181	900.27655	1212.57471	365.07266	917.72736	1201.20764	365.61765	851.28955	1708.63953	529.87122	1487.93591	1797.17480	537.87158	1295.34778	1812.68164	588.82556	1155.14063	1822.01111	659.17560	1056.49365	1793.36157	749.91882	959.99457	1825.00464	708.93744	935.83197	1825.66833	768.72089	895.54449	1398.32654	605.70435	987.73859	1656.10999	600.19653	970.14679	1473.41638	393.98523	1027.29810	1587.41760	384.96890	1028.39478	1321.10925	597.03802	684.57416	1349.53503	635.05011	487.32211	1347.55347	650.60486	294.59219	1355.19946	746.98962	89.15179	1412.17444	736.90381	53.99822	1312.53259	898.06287	97.04438	1700.19397	482.43671	668.54706	1653.91040	444.70850	461.57666	1652.62634	368.28210	288.45624	1606.47229	319.60300	101.32418	1548.04578	281.18732	50.68493	1633.19189	463.27438	37.43069	1541.40430	463.93130	1787.92578	-3360.38281	2845.17310	1034.17712			 
194	1.930	1451.21118	586.54413	1746.22449	1594.64502	591.84381	1734.95447	1448.34387	479.01202	1640.57971	1590.59351	472.49976	1624.47339	1527.17090	443.12421	1521.88660	1532.97791	378.58466	1249.97900	1508.47070	579.70715	1448.29346	1519.86670	624.05511	1273.11340	1597.00488	383.51575	1354.97351	1342.30017	504.67416	1491.51331	1262.22571	455.25964	1298.67542	1250.88367	421.92075	1163.96851	1225.73669	394.55234	1038.03516	1232.15076	420.56140	899.41132	1210.82751	371.21689	917.14380	1199.36633	371.90848	850.74237	1707.07544	537.44788	1487.22424	1795.05542	545.02881	1294.23560	1810.61560	596.46777	1154.22864	1820.04358	667.23456	1055.95313	1790.49316	758.18933	959.86597	1822.06860	717.35327	935.19757	1822.55371	777.47559	895.43970	1396.95850	613.51312	986.69922	1654.87415	607.95770	969.23517	1472.16345	401.88113	1026.21826	1586.13550	392.71970	1027.63464	1320.07666	606.52661	683.93927	1348.64673	644.65698	486.87408	1346.44238	660.56989	294.08783	1354.73083	757.24835	88.81519	1412.13354	746.96851	53.47095	1312.45728	908.44275	97.18575	1699.39917	487.90146	668.27814	1653.50208	448.63162	461.50839	1652.27869	370.43066	289.13138	1606.45398	320.07465	102.22937	1547.99585	281.42804	51.95204	1633.30017	463.33456	37.41252	1539.76208	471.62512	1787.63586	-3360.24146	2845.30054	1034.19263			 
195	1.940	1449.41638	594.15204	1745.32007	1592.85974	599.32660	1733.91956	1446.37524	486.32608	1639.94263	1588.34497	479.51001	1623.68726	1525.38574	450.31198	1520.92029	1531.44165	386.28976	1248.89526	1506.53149	587.08051	1447.46277	1517.99524	631.81006	1272.41736	1595.53845	389.83258	1354.19714	1340.45728	511.57849	1490.55664	1260.46252	461.96515	1297.67981	1249.08032	428.60782	1163.07751	1224.17688	400.95740	1037.28638	1230.04602	426.99515	898.58905	1208.91833	377.50742	916.39697	1197.18701	377.85172	850.04608	1705.36719	545.06268	1486.45032	1793.25964	552.47919	1293.49597	1809.01282	604.07910	1153.59241	1817.06384	674.79736	1054.90723	1787.25232	765.97980	959.42151	1819.40002	725.67969	934.80237	1819.40356	785.83881	895.08093	1395.46338	621.38019	985.70465	1653.47070	615.80005	968.36145	1470.79456	409.75864	1025.21057	1584.47144	400.46664	1026.69543	1318.32971	615.67993	683.11615	1347.46082	654.38831	486.31183	1345.45459	670.09619	293.48514	1354.53162	766.37738	88.29510	1411.45459	755.92273	53.03970	1312.47461	917.64618	96.39668	1698.33057	493.18832	667.76080	1653.12659	452.62006	461.40332	1651.97668	372.62152	289.83817	1606.54480	320.56888	103.25912	1548.18384	281.64810	53.21038	1633.47217	463.38269	37.41385	1537.93298	479.31915	1786.84631	-3357.29712	2845.82935	1034.22217			 
196	1.950	1447.41138	601.75934	1744.34363	1590.92151	606.84497	1732.91223	1444.32312	493.71014	1639.27246	1586.34534	486.68777	1623.02356	1523.31067	457.65668	1519.81934	1529.86353	394.07315	1247.81628	1504.45081	594.52338	1446.67407	1516.03564	639.64410	1271.76025	1593.83264	397.33298	1353.19128	1338.51111	518.54358	1489.53870	1258.55518	468.58051	1296.85803	1247.18518	435.46353	1162.12195	1222.38965	407.98782	1036.32910	1227.80652	433.80051	897.64514	1206.93530	384.13199	915.52606	1195.13489	384.40442	849.14423	1703.43176	552.60223	1485.65906	1791.22278	559.85907	1292.58191	1806.57349	611.30225	1152.49182	1814.79541	682.56476	1054.31531	1784.64343	773.92676	958.99054	1816.53357	733.62091	934.07501	1816.34155	793.81897	894.58868	1393.80371	629.47266	984.78534	1652.02466	623.76764	967.44305	1469.21887	417.07437	1024.42529	1583.24329	408.46985	1026.28015	1317.12158	625.26959	682.60632	1346.26074	663.99280	485.78143	1344.40002	679.15552	292.88745	1354.33179	774.49615	87.48201	1411.74609	763.70892	52.14201	1312.73840	925.76996	94.89783	1697.65723	498.92624	667.81519	1652.54431	456.54547	461.12997	1651.68042	374.94165	290.58807	1606.75684	321.17627	104.39954	1548.48462	281.87448	54.80912	1633.71875	463.53168	37.47710	1535.96936	487.00342	1786.33020	-3357.15601	2845.81250	1034.23828			 
